<?xml version="1.0" standalone="no"?>
<!DOCTYPE svg PUBLIC "-//W3C//DTD SVG 20010904//EN"
 "http://www.w3.org/TR/2001/REC-SVG-20010904/DTD/svg10.dtd">
<svg version="1.0" xmlns="http://www.w3.org/2000/svg"
 width="84.000000pt" height="84.000000pt" viewBox="0 0 84.000000 84.000000"
 preserveAspectRatio="xMidYMid meet">
<metadata>
Created by potrace 1.14, written by Peter Selinger 2001-2017
</metadata>
<g transform="translate(0.000000,84.000000) scale(0.100000,-0.100000)"
fill="#000000" stroke="none">
<path d="M395 830 c-60 -9 -111 -38 -154 -86 -42 -48 -61 -100 -61 -165 0 -67
8 -83 44 -95 29 -9 34 -8 43 13 7 13 7 25 2 29 -5 3 -9 19 -9 35 0 24 6 32 29
40 21 7 31 20 40 49 7 23 18 40 26 40 8 0 15 6 15 14 0 16 42 35 86 38 32 2
84 -24 84 -43 0 -6 5 -7 10 -4 6 4 19 -4 29 -16 17 -22 17 -23 -2 -42 -18 -18
-21 -18 -29 -3 -5 9 -17 16 -26 16 -16 1 -15 2 1 14 17 13 17 15 -9 41 -20 20
-32 25 -53 20 -39 -9 -62 -44 -55 -82 4 -21 2 -33 -5 -33 -6 0 -11 -5 -11 -11
0 -7 10 -9 27 -5 22 6 33 0 74 -40 l47 -47 27 21 c29 23 46 20 79 -17 25 -27
33 -20 42 34 24 164 -123 309 -291 285z"/>
<path d="M545 661 c-6 -11 9 -23 19 -14 9 9 7 23 -3 23 -6 0 -12 -4 -16 -9z"/>
<path d="M351 516 c-44 -45 -69 -76 -62 -80 6 -4 11 -12 11 -19 0 -6 -15 3
-33 21 -18 18 -42 32 -53 32 -11 0 -39 -20 -63 -44 -31 -32 -55 -47 -82 -51
-70 -12 -41 -25 56 -25 57 0 95 -4 95 -10 0 -5 -16 -10 -35 -10 -24 0 -35 -5
-35 -15 0 -13 38 -15 280 -15 242 0 280 2 280 15 0 10 -11 15 -35 15 -19 0
-35 5 -35 10 0 6 38 10 95 10 97 0 126 13 57 25 -31 5 -54 22 -113 81 -40 41
-78 74 -83 74 -5 0 -18 -8 -28 -17 -18 -16 -17 -18 24 -62 24 -25 34 -39 23
-31 -11 8 -54 50 -95 92 -41 43 -80 78 -85 78 -6 0 -43 -33 -84 -74z"/>
<path d="M30 175 l0 -75 79 0 c108 0 115 -18 9 -22 l-83 -3 -3 -32 c-4 -41 9
-45 143 -41 l100 3 3 78 3 77 -81 0 c-47 0 -80 4 -80 10 0 6 33 10 80 10 l80
0 0 35 0 35 -125 0 -125 0 0 -75z"/>
<path d="M312 128 l3 -123 100 -3 c155 -4 145 -13 145 128 l0 120 -125 0 -126
0 3 -122z m168 1 l0 -50 -47 3 c-46 3 -48 4 -51 36 -5 53 2 62 53 62 l45 0 0
-51z"/>
<path d="M402 128 c3 -29 6 -33 33 -33 27 0 30 4 33 33 3 31 2 32 -33 32 -35
0 -36 -1 -33 -32z"/>
<path d="M580 175 l0 -75 80 0 c47 0 80 -4 80 -10 0 -6 -33 -10 -80 -10 l-80
0 0 -35 c0 -43 11 -47 145 -43 l100 3 3 78 3 77 -81 0 c-47 0 -80 4 -80 10 0
6 33 10 80 10 l80 0 0 35 0 35 -125 0 -125 0 0 -75z"/>
</g>
</svg>
